# xmcd CD database file
#
# Track frame offsets:
#	150
#	4620
#	21618
#	32759
#	52265
#	67325
#	75081
#	85402
#	96496
#	131304
#	137607
#	153743
#	162930
#	176563
#
# Disc length: 2760 seconds
#
# Revision: 1
# Processed by: cddbd v1.4PL0 Copyright (c) Steve Scherf et al.
# Submitted via: CDex 1.51
#
DISCID=bb0ac60e
DTITLE=Trionacria - The Mystic Revelation
DYEAR=1900
DGENRE=Jazz
TTITLE0=L'asino
TTITLE1=Love Both
TTITLE2=Vergin 110
TTITLE3=Murnau
TTITLE4=Tram n' Bus
TTITLE5=Crotalus maior
TTITLE6=V tre
TTITLE7=Mission Possible
TTITLE8=Tecniche dell' abigeato
TTITLE9=Coniglicultura applicata
TTITLE10=Saìd
TTITLE11=Gustavus
TTITLE12=T.Rex
TTITLE13=La necromante
EXTD=
EXTT0=
EXTT1=
EXTT2=
EXTT3=
EXTT4=
EXTT5=
EXTT6=
EXTT7=
EXTT8=
EXTT9=
EXTT10=
EXTT11=
EXTT12=
EXTT13=
PLAYORDER=
